<?xml version="1.0" encoding="utf-8"?>
<!-- Generator: Adobe Illustrator 18.0.0, SVG Export Plug-In . SVG Version: 6.00 Build 0)  -->
<!DOCTYPE svg PUBLIC "-//W3C//DTD SVG 1.1//EN" "http://www.w3.org/Graphics/SVG/1.1/DTD/svg11.dtd">
<svg version="1.1" id="Layer_1" xmlns="http://www.w3.org/2000/svg" xmlns:xlink="http://www.w3.org/1999/xlink" x="0px" y="0px"
	 viewBox="0 0 24 24" enable-background="new 0 0 24 24" xml:space="preserve">
<g id="XMLID_1_">
	<path id="XMLID_36_" fill="#0DA4DE" d="M20.5,0H12H3.5C1.6,0,0,1.6,0,3.5V12v8.5C0,22.4,1.6,24,3.5,24H12h8.5
		c1.9,0,3.5-1.6,3.5-3.5V12V3.5C24,1.6,22.4,0,20.5,0z"/>
	<path id="XMLID_34_" fill="#0DA4DE" d="M0,12v8.5C0,22.4,1.6,24,3.5,24H12h8.5c1.9,0,3.5-1.6,3.5-3.5V12H0z"/>
	<rect id="XMLID_21_" x="15.5" y="6.7" fill="#FFFFFF" width="2.5" height="7.1"/>
	<path id="XMLID_17_" fill="#FFFFFF" d="M13.2,12.4c-0.4-0.5-1-0.7-1.7-0.8c0.7-0.2,1.1-0.4,1.4-0.8c0.3-0.3,0.5-0.8,0.5-1.4
		c0-0.5-0.1-0.9-0.3-1.2c-0.2-0.4-0.5-0.6-0.9-0.9c-0.3-0.2-0.7-0.3-1.2-0.4c-0.5-0.1-1.3-0.1-2.5-0.1H5.6v10.5h3c1.2,0,2,0,2.6-0.1
		c0.5-0.1,1-0.2,1.3-0.4c0.4-0.2,0.8-0.6,1-1c0.2-0.4,0.4-0.9,0.4-1.5C13.9,13.5,13.7,12.8,13.2,12.4z M8.3,9.1h0.6
		c0.7,0,1.2,0.1,1.4,0.2c0.2,0.2,0.4,0.4,0.4,0.8c0,0.4-0.1,0.6-0.4,0.8c-0.3,0.2-0.7,0.2-1.4,0.2H8.3V9.1z M10.7,15.1
		c-0.3,0.2-0.8,0.3-1.4,0.3h-1v-2.3h1c0.7,0,1.2,0.1,1.4,0.3c0.3,0.2,0.4,0.5,0.4,0.9C11.2,14.6,11,14.9,10.7,15.1z"/>
	<g id="XMLID_4_">
		<circle id="XMLID_16_" fill="#F9F9FA" cx="16.8" cy="15.9" r="1.4"/>
		<path id="XMLID_11_" fill="#F9F9FA" d="M12.8,12H5.6v5.2h3c1.2,0,2,0,2.6-0.1c0.5-0.1,1-0.2,1.3-0.4c0.4-0.2,0.8-0.6,1-1
			c0.2-0.4,0.4-0.9,0.4-1.5c0-0.8-0.2-1.4-0.6-1.9C13.1,12.2,13,12.1,12.8,12z M10.7,15.1c-0.3,0.2-0.8,0.3-1.4,0.3h-1v-2.3h1
			c0.7,0,1.2,0.1,1.4,0.3c0.3,0.2,0.4,0.5,0.4,0.9C11.2,14.6,11,14.9,10.7,15.1z"/>
		<rect id="XMLID_10_" x="15.5" y="12" fill="#F9F9FA" width="2.5" height="1.8"/>
	</g>
</g>
</svg>
