<svg xmlns="http://www.w3.org/2000/svg" width="24" height="24" viewBox="0 0 24 24"><path d="M0 0v24h24V0H0zm4.667 15.524A2.028 2.028 0 0 1 4 14.012c0-.608.262-1.146.667-1.512v3.024zM6 16c-.243 0-.369.003-.667-.092v-3.792A1.46 1.46 0 0 1 6 12.035V16zm1.333 0h-.666v-3.778l.206.121c.091-.375.253-.718.461-1.023V16zm1.334 0H8v-5.378c.206-.154.426-.286.667-.377V16zM10 16h-.667v-5.905c.251-.027.328-.046.667.006V16zm1.333 0h-.667v-5.7l.253.123a3.69 3.69 0 0 1 .414-.572V16zm6.727 0H12V9.252a3.23 3.23 0 0 1 1.841-.585c1.809 0 3.275 1.494 3.411 3.386 1.302-.638 2.748.387 2.748 1.876C20 15.072 19.131 16 18.06 16z" fill="#f70"/></svg>