<svg xmlns="http://www.w3.org/2000/svg" viewBox="0 0 24 24"><path fill="#0DA4DE" d="M20.5 0h-17C1.6 0 0 1.6 0 3.5v17C0 22.4 1.6 24 3.5 24h17c1.9 0 3.5-1.6 3.5-3.5v-17C24 1.6 22.4 0 20.5 0z"/><path fill="#0DA4DE" d="M0 12v8.5C0 22.4 1.6 24 3.5 24h17c1.9 0 3.5-1.6 3.5-3.5V12H0z"/><path fill="#FFF" d="M15.5 6.7H18v7.1h-2.5zM13.2 12.4c-.4-.5-1-.7-1.7-.8.7-.2 1.1-.4 1.4-.8.3-.3.5-.8.5-1.4 0-.5-.1-.9-.3-1.2-.2-.4-.5-.6-.9-.9-.3-.2-.7-.3-1.2-.4-.5-.1-1.3-.1-2.5-.1H5.6v10.5h3c1.2 0 2 0 2.6-.1.5-.1 1-.2 1.3-.4.4-.2.8-.6 1-1 .2-.4.4-.9.4-1.5 0-.8-.2-1.5-.7-1.9zM8.3 9.1h.6c.7 0 1.2.1 1.4.2.2.2.4.4.4.8s-.1.6-.4.8c-.3.2-.7.2-1.4.2h-.6v-2zm2.4 6c-.3.2-.8.3-1.4.3h-1v-2.3h1c.7 0 1.2.1 1.4.3.3.2.4.5.4.9.1.3-.1.6-.4.8z"/><g fill="#F9F9FA"><circle cx="16.8" cy="15.9" r="1.4"/><path d="M12.8 12H5.6v5.2h3c1.2 0 2 0 2.6-.1.5-.1 1-.2 1.3-.4.4-.2.8-.6 1-1 .2-.4.4-.9.4-1.5 0-.8-.2-1.4-.6-1.9-.2-.1-.3-.2-.5-.3zm-2.1 3.1c-.3.2-.8.3-1.4.3h-1v-2.3h1c.7 0 1.2.1 1.4.3.3.2.4.5.4.9.1.3-.1.6-.4.8zM15.5 12H18v1.8h-2.5z"/></g></svg>