<?xml version="1.0" encoding="utf-8"?>
<!-- Generator: Adobe Illustrator 18.0.0, SVG Export Plug-In . SVG Version: 6.00 Build 0)  -->
<!DOCTYPE svg PUBLIC "-//W3C//DTD SVG 1.1//EN" "http://www.w3.org/Graphics/SVG/1.1/DTD/svg11.dtd">
<svg version="1.1" id="Layer_1" xmlns="http://www.w3.org/2000/svg" xmlns:xlink="http://www.w3.org/1999/xlink" x="0px" y="0px"
	 viewBox="0 0 24 24" enable-background="new 0 0 24 24" xml:space="preserve">
<g>
	<path id="Blue_3_" fill="#3C5A95" d="M22.7,24c0.7,0,1.3-0.6,1.3-1.3V1.3C24,0.6,23.4,0,22.7,0H1.3C0.6,0,0,0.6,0,1.3v21.4
		C0,23.4,0.6,24,1.3,24H22.7z"/>
	<path id="f_3_" fill="#FFFFFF" d="M16.6,24v-9.3h3.1l0.5-3.6h-3.6V8.8c0-1,0.3-1.8,1.8-1.8l1.9,0V3.8c-0.3,0-1.5-0.1-2.8-0.1
		c-2.8,0-4.7,1.7-4.7,4.8v2.7H9.7v3.6h3.1V24H16.6z"/>
</g>
</svg>
