<svg xmlns="http://www.w3.org/2000/svg" xmlns:xlink="http://www.w3.org/1999/xlink" viewBox="0 0 522 522"><defs><style>.cls-1,.cls-2{fill:none;}.cls-2,.cls-3{clip-path:url(#clip-path);}.cls-2{clip-rule:evenodd;}.cls-4{fill:#60909a;}.cls-5{clip-path:url(#clip-path-5);}.cls-6{fill:#fff;}.cls-7{clip-path:url(#clip-path-6);}.cls-8{clip-path:url(#clip-path-7);}</style><clipPath id="clip-path"><rect class="cls-1" x="5" y="5" width="512" height="512"/></clipPath><clipPath id="clip-path-5"><path class="cls-2" d="M325.86,244.4c-18.35,0-27.73,14.45-27.73,36.2,0,20.57,10.14,36,27.73,36,19.89,0,27.34-18.2,27.34-36,0-18.59-9.38-36.2-27.35-36.2m-48.75-54h21.8v52.21h.38c5.93-9.88,18.36-16,29.45-16C359.89,226.6,375,251.14,375,281c0,27.48-13.38,53.39-42.64,53.39-13.39,0-27.73-3.35-34.23-16.8h-.38v14H277.1V190.41h0"/></clipPath><clipPath id="clip-path-6"><path class="cls-2" d="M455.39,263.6c-1.72-12.46-10.52-19.19-22.56-19.19-11.29,0-27.16,6.13-27.16,37.19,0,17,7.27,35,26.2,35,12.62,0,21.41-8.71,23.52-23.35h21.8c-4,26.51-19.89,41.14-45.32,41.14-31,0-48-22.74-48-52.8,0-30.86,16.25-55,48.76-55,22.94,0,42.45,11.87,44.55,37h-21.8"/></clipPath><clipPath id="clip-path-7"><polyline class="cls-2" points="200.9 331.34 37.41 331.34 113.75 190.41 277.24 190.41 200.9 331.34"/></clipPath></defs><title>icon-bandcamp</title><g id="レイヤー_2" data-name="レイヤー 2"><g id="レイヤー_1-2" data-name="レイヤー 1"><g class="cls-3"><rect class="cls-4" width="522" height="522"/></g><g class="cls-5"><rect class="cls-6" x="272.1" y="185.41" width="107.9" height="154"/></g><g class="cls-7"><rect class="cls-6" x="378.88" y="221.61" width="103.31" height="117.8"/></g><g class="cls-8"><rect class="cls-6" x="32.41" y="185.41" width="249.83" height="150.93"/></g></g></g></svg>