<svg xmlns="http://www.w3.org/2000/svg" viewBox="0 0 357.17 124.72"><defs><style>.cls-2{fill:#fff}</style></defs><g id="レイヤー_2" data-name="レイヤー 2"><g id="レイヤー_1-2" data-name="レイヤー 1"><path fill="#fc4d50" d="M0 0h357.17v124.72H0z"/><path class="cls-2" d="M140.46 62.42a36.73 36.73 0 01-2.76 11.14 31.76 31.76 0 01-5.69 9 25.42 25.42 0 01-8.32 6 24.71 24.71 0 01-10.36 2.21A21 21 0 01100.68 87 21.31 21.31 0 0193 76.78a32.46 32.46 0 01-1.59-14.36A35.89 35.89 0 0195.81 48a27.94 27.94 0 019.54-10.14 24.22 24.22 0 0113.2-3.75 21 21 0 0112.52 3.75 21.58 21.58 0 017.7 10.14 31.56 31.56 0 011.69 14.38m-9.94-.38a20.41 20.41 0 00-.91-8.39 14 14 0 00-4.49-6.53 11.55 11.55 0 00-7.53-2.57 13.62 13.62 0 00-8 2.57 17.9 17.9 0 00-5.66 6.53 23.11 23.11 0 00-2.45 8.39 47.65 47.65 0 000 5.07 15.67 15.67 0 001.09 5 17.64 17.64 0 002.36 4.29 10.15 10.15 0 003.84 3 12.63 12.63 0 005.51 1.15 14.27 14.27 0 006.91-1.68 14 14 0 005-4.46 25 25 0 003-5.93 27.31 27.31 0 001.33-6.44m63.31.43a36.43 36.43 0 01-2.75 11.14 31.57 31.57 0 01-5.7 9 25.38 25.38 0 01-8.31 6 24.71 24.71 0 01-10.36 2.21A21 21 0 01154.06 87a21.32 21.32 0 01-7.65-10.24 32.46 32.46 0 01-1.58-14.36 35.73 35.73 0 014.35-14.4 28 28 0 019.55-10.14 24.22 24.22 0 0113.2-3.75 21 21 0 0112.51 3.75A21.54 21.54 0 01192.15 48a31.7 31.7 0 011.68 14.38m-9.94-.38a20.08 20.08 0 00-.89-8.4 14 14 0 00-4.48-6.53A11.59 11.59 0 00171 44.5a13.62 13.62 0 00-8 2.57 17.81 17.81 0 00-5.66 6.53 23.32 23.32 0 00-2.49 8.4 50.46 50.46 0 000 5.07 16.23 16.23 0 001.09 5 17.64 17.64 0 002.36 4.29 10.3 10.3 0 003.84 3 12.7 12.7 0 005.52 1.15 14.21 14.21 0 006.9-1.68 14 14 0 005-4.46 25.29 25.29 0 003-5.93 26.82 26.82 0 001.33-6.44m33.65-17.67L212.75 90H202l4.79-45.69h-11.08l1-9.35h32.92l-1 9.35zm25.35 13.4h17.85L263.12 35h10.73l-5.75 55h-10.74l2.46-23.53H242L239.52 90h-10.73l5.75-55h10.73zM70.25 35q8 0 11.91 3.54c2.58 2.37 3.6 6.17 3 11.43a17.54 17.54 0 01-1.86 6.17 11 11 0 01-4.07 4.49 8.75 8.75 0 015 2.77 11.27 11.27 0 012.65 5 18 18 0 01.32 6q-.84 7.74-6.1 11.68T68 90H45.12l5.75-55zM58.37 66.07L56.78 81.4h8.28c1.31 0 2.43 0 3.35-.11a13.3 13.3 0 002.93-.58 7.45 7.45 0 002.56-1.32 6.82 6.82 0 001.73-2.33 11.16 11.16 0 001-3.54 7.94 7.94 0 00-.39-3.52 5.41 5.41 0 00-1.43-2.22 5.94 5.94 0 00-2.5-1.17 16.25 16.25 0 00-2.88-.48c-.83 0-1.93-.07-3.29-.07zm2.38-22.48l-1.5 14.31h7.33c2.73 0 4.75-.53 6.09-1.57s2.14-2.94 2.43-5.66-.16-4.47-1.39-5.51-3.07-1.57-5.55-1.57zM309.11 70.13v-2.49l-6.21-9.93h-2.14l-3.39 8.13-3.33-7h-1.87l-5.64 13.32V59.52h-3.84v1.11h-2.93v3.9h2.93v11.24a1.81 1.81 0 001.81 1.81h1.92V90h3.91v-5.64a5.86 5.86 0 016-5.65c5.44 0 9.85 4.12 9.85 9.2V90h2.86V78.85h2.94v-6.14z"/></g></g></svg>