<?xml version="1.0" encoding="utf-8"?>
<!-- Generator: Adobe Illustrator 18.0.0, SVG Export Plug-In . SVG Version: 6.00 Build 0)  -->
<!DOCTYPE svg PUBLIC "-//W3C//DTD SVG 1.1//EN" "http://www.w3.org/Graphics/SVG/1.1/DTD/svg11.dtd">
<svg version="1.1" id="Layer_1" xmlns="http://www.w3.org/2000/svg" xmlns:xlink="http://www.w3.org/1999/xlink" x="0px" y="0px"
	 viewBox="0 0 24 24" enable-background="new 0 0 24 24" xml:space="preserve">
<g>
	<path fill-rule="evenodd" clip-rule="evenodd" fill="#D74F40" d="M1.6,0h20.7C23.3,0,24,0.7,24,1.6v20.7c0,0.9-0.7,1.6-1.6,1.6H1.6
		C0.7,24,0,23.3,0,22.4V1.6C0,0.7,0.7,0,1.6,0z"/>
	<g>
		<path fill-rule="evenodd" clip-rule="evenodd" fill="#FFFFFF" d="M8.8,11.2v1.9H12c-0.1,0.8-1,2.4-3.2,2.4c-1.9,0-3.5-1.6-3.5-3.5
			c0-2,1.6-3.5,3.5-3.5c1.1,0,1.8,0.5,2.2,0.9l1.5-1.5c-1-0.9-2.2-1.5-3.8-1.5c-3.1,0-5.6,2.5-5.6,5.6c0,3.1,2.5,5.6,5.6,5.6
			c3.2,0,5.4-2.3,5.4-5.5c0-0.4,0-0.6-0.1-0.9H8.8L8.8,11.2L8.8,11.2z M8.8,11.2"/>
		<polygon fill-rule="evenodd" clip-rule="evenodd" fill="#FFFFFF" points="20.8,12.8 19.2,12.8 19.2,14.4 17.6,14.4 17.6,12.8 
			16,12.8 16,11.2 17.6,11.2 17.6,9.6 19.2,9.6 19.2,11.2 20.8,11.2 		"/>
	</g>
</g>
</svg>
