<svg xmlns="http://www.w3.org/2000/svg" viewBox="0 0 250 250"><g data-name="l2"><g data-name="l3"><rect width="250" height="250" rx="10" fill="#68bf52"/><path d="M137.5 49.91a18.08 18.08 0 0 0-25.49 0l-64 64a18.08 18.08 0 0 0 0 25.48l45.69 45.69a18 18 0 0 0 11.89 4.45H144a18.06 18.06 0 0 0 12.8-5.3l44.81-44.81a18.06 18.06 0 0 0 0-25.48zm-46.5 85a2.59 2.59 0 0 1-1.83.76h-5.48A2.53 2.53 0 0 1 82 135l-6.52-6.52a2.57 2.57 0 0 1 0-3.63l47.46-47.46a2.57 2.57 0 0 1 3.63 0l9.14 9.14a2.58 2.58 0 0 1 0 3.64zm44.71 31.93l-6.39 6.4a2.6 2.6 0 0 1-1.83.75H122a2.6 2.6 0 0 1-1.7-.63l-6.52-6.52a2.58 2.58 0 0 1 0-3.64l9.14-9.13a2.57 2.57 0 0 1 3.63 0l9.14 9.14a2.57 2.57 0 0 1 .02 3.64zm0-38.32l-25.55 25.55a2.59 2.59 0 0 1-1.83.76h-5.48a2.59 2.59 0 0 1-1.69-.63l-6.52-6.52a2.58 2.58 0 0 1 0-3.64l28.3-28.29a2.55 2.55 0 0 1 3.63 0l9.14 9.13a2.58 2.58 0 0 1 0 3.65z" fill="#fff"/></g></g></svg>