<svg xmlns="http://www.w3.org/2000/svg" viewBox="0 0 522 522"><defs><style>.cls-2{fill:none;clip-path:url(#clip-path);clip-rule:evenodd}.cls-6{fill:#fff}</style><clipPath id="clip-path"><path fill="none" d="M5 5h512v512H5z"/></clipPath><clipPath id="clip-path-5"><path class="cls-2" d="M325.86 244.4c-18.35 0-27.73 14.45-27.73 36.2 0 20.57 10.14 36 27.73 36 19.89 0 27.34-18.2 27.34-36 0-18.59-9.38-36.2-27.35-36.2m-48.75-54h21.8v52.21h.38c5.93-9.88 18.36-16 29.45-16C359.89 226.6 375 251.14 375 281c0 27.48-13.38 53.39-42.64 53.39-13.39 0-27.73-3.35-34.23-16.8h-.38v14H277.1V190.41"/></clipPath><clipPath id="clip-path-6"><path class="cls-2" d="M455.39 263.6c-1.72-12.46-10.52-19.19-22.56-19.19-11.29 0-27.16 6.13-27.16 37.19 0 17 7.27 35 26.2 35 12.62 0 21.41-8.71 23.52-23.35h21.8c-4 26.51-19.89 41.14-45.32 41.14-31 0-48-22.74-48-52.8 0-30.86 16.25-55 48.76-55 22.94 0 42.45 11.87 44.55 37h-21.8"/></clipPath><clipPath id="clip-path-7"><path class="cls-2" d="M200.9 331.34H37.41l76.34-140.93h163.49L200.9 331.34"/></clipPath></defs><g id="レイヤー_2" data-name="レイヤー 2"><g id="レイヤー_1-2" data-name="レイヤー 1"><g clip-path="url(#clip-path)"><path fill="#60909a" d="M0 0h522v522H0z"/></g><g clip-path="url(#clip-path-5)"><path class="cls-6" d="M272.1 185.41H380v154H272.1z"/></g><g clip-path="url(#clip-path-6)"><path class="cls-6" d="M378.88 221.61h103.31v117.8H378.88z"/></g><g clip-path="url(#clip-path-7)"><path class="cls-6" d="M32.41 185.41h249.83v150.93H32.41z"/></g></g></g></svg>