<svg xmlns="http://www.w3.org/2000/svg" viewBox="0 0 200 200"><path d="M0 100C0 44.85 44.85 0 100 0s100 44.85 100 100-44.85 100-100 100S0 155.15 0 100zm49.47 51.49c1.11 1.48 3.51 1.29 5.54-.37 4.43-3.51 8.68-6.28 16.8-6.28 15.32 0 27.51 9.6 45.79 9.6 14.03.18 22.89-5.17 27.88-12.37 3.88-5.54 5.72-13.11 5.72-19.02 0-8.31-4.8-13.85-13.11-13.85-7.94 0-11.44 4.06-11.82 9.97-.18 2.4-.18 7.02-1.66 9.23-1.48 2.4-4.25 3.14-7.57 3.14-8.68 0-19.02-7.01-30.46-7.01h-1.66l74.4-60.19c1.29-.93 1.85-3.14.37-4.25l-11.45-13.48c-2.03-1.85-3.51-1.66-5.54 0-3.88 3.14-7.57 6.28-15.51 6.28-12.93 0-26.77-8.12-44.86-8.12-12.92 0-20.13 4.8-25.11 9.97-4.8 5.17-8.12 13.48-8.12 21.42 0 8.12 4.8 13.29 12.74 13.29 7.2 0 11.45-4.06 11.45-9.78 0-3.32.18-6.28 1.66-8.49 1.29-2.21 4.62-4.25 9.23-4.25 7.2 0 20.86 4.98 29.36 4.98h.55l-75.33 59.82c-1.48 1.11-1.48 3.69-.55 4.98l11.26 14.78z"/></svg>