<svg xmlns="http://www.w3.org/2000/svg" viewBox="0 0 654.65 86.41"><g data-name="レイヤー 2"><path d="M27.65 78.12C60.83 78.12 79 50.63 79 26.8c0-.79 0-1.56-.06-2.34a36.33 36.33 0 009-9.34A35.65 35.65 0 0177.56 18 18.06 18.06 0 0085.5 8 36.14 36.14 0 0174 12.36a18.05 18.05 0 00-30.7 16.45A51.22 51.22 0 016.12 10a18.06 18.06 0 005.58 24.05 17.83 17.83 0 01-8.17-2.26V32A18.06 18.06 0 0018 49.71a18.15 18.15 0 01-4.75.63A17.88 17.88 0 019.86 50a18.06 18.06 0 0016.85 12.55A36.22 36.22 0 014.3 70.27 36 36 0 010 70a51.1 51.1 0 0027.65 8.1" fill="#1da1f2"/><text transform="translate(99.96 60.05)" font-size="70" fill="#14171a" font-family="Arial-BoldMT,Arial" font-weight="700" letter-spacing="-.05em">@lostmortalmusic</text></g></svg>