<svg xmlns="http://www.w3.org/2000/svg" viewBox="0 0 380.92 85.04"><defs><style>.cls-3{fill:#282828}</style></defs><g id="レイヤー_2" data-name="レイヤー 2"><g id="Layer_1" data-name="Layer 1"><path d="M119 13.28a15.23 15.23 0 00-10.79-10.74C98.73 0 60.74 0 60.74 0s-38 0-47.46 2.54A15.21 15.21 0 002.54 13.28C0 22.75 0 42.52 0 42.52s0 19.77 2.54 29.24A15.21 15.21 0 0013.28 82.5C22.75 85 60.74 85 60.74 85s38 0 47.47-2.54A15.23 15.23 0 00119 71.76c2.53-9.47 2.53-29.24 2.53-29.24s-.05-19.77-2.53-29.24z" fill="red"/><path fill="#fff" d="M48.59 60.74l31.57-18.22L48.59 24.3v36.44z"/><path class="cls-3" d="M176.34 77.36a13.2 13.2 0 01-5.13-7.55 49.68 49.68 0 01-1.52-13.64v-7.74a44.8 44.8 0 011.74-13.81 13.78 13.78 0 015.43-7.6 17.59 17.59 0 019.68-2.39q5.91 0 9.47 2.43a14 14 0 015.22 7.6 46.66 46.66 0 011.65 13.77v7.74a47.48 47.48 0 01-1.61 13.68 13.45 13.45 0 01-5.21 7.56q-3.62 2.39-9.78 2.39-6.34 0-9.94-2.44zM189.8 69q1-2.59 1-8.51V43.92c0-3.83-.33-6.62-1-8.39a3.59 3.59 0 00-3.52-2.65 3.54 3.54 0 00-3.43 2.65c-.67 1.77-1 4.56-1 8.39v16.59q0 5.91 1 8.51a3.48 3.48 0 003.47 2.61A3.57 3.57 0 00189.8 69zM360.86 56.29V59a71.88 71.88 0 00.3 7.68 7.27 7.27 0 001.26 3.74 3.59 3.59 0 002.95 1.17 3.72 3.72 0 003.7-2.08q1-2.09 1.08-7l10.34.61a15.67 15.67 0 01.09 1.91q0 7.38-4 11c-2.7 2.43-6.5 3.65-11.43 3.65-5.9 0-10.05-1.85-12.42-5.56s-3.56-9.44-3.56-17.2v-9.3q0-12 3.69-17.5t12.64-5.52q6.17 0 9.47 2.26a12.11 12.11 0 014.65 7 50.85 50.85 0 011.34 13.21v9.12zm1.52-22.41a7.26 7.26 0 00-1.22 3.69 73.27 73.27 0 00-.3 7.78v3.82h8.77v-3.82a64.93 64.93 0 00-.35-7.78 7.44 7.44 0 00-1.28-3.74 3.48 3.48 0 00-2.82-1.08 3.41 3.41 0 00-2.8 1.13zM147.14 55.3L133.5 6h11.9l4.78 22.32q1.83 8.27 2.7 14.08h.34q.61-4.17 2.7-14l5-22.41h11.9L159 55.3v23.63h-11.86zM241.59 25.67v53.26h-9.39l-1-6.52h-.26q-3.83 7.38-11.47 7.39-5.3 0-7.82-3.48c-1.68-2.31-2.52-5.94-2.52-10.86V25.67h12v39.1a12 12 0 00.78 5.08 2.72 2.72 0 002.61 1.52 5.33 5.33 0 003-1A5.93 5.93 0 00229.6 68V25.67zM303.08 25.67v53.26h-9.38l-1-6.52h-.26q-3.82 7.38-11.47 7.39c-3.54 0-6.14-1.16-7.82-3.48s-2.52-5.94-2.52-10.86V25.67h12v39.1a12 12 0 00.78 5.08 2.71 2.71 0 002.59 1.52 5.28 5.28 0 003-1 5.79 5.79 0 002.09-2.37V25.67z"/><path class="cls-3" d="M274.16 15.68h-11.9v63.25h-11.73V15.68h-11.9V6h35.53zM342.76 34.18c-.72-3.35-1.9-5.79-3.52-7.29a9.43 9.43 0 00-6.69-2.26 11.08 11.08 0 00-6.17 1.87 12.7 12.7 0 00-4.38 4.91h-.08V3.34h-11.61v75.59h9.91l1.21-5h.26a10.22 10.22 0 004.17 4.25 12.31 12.31 0 006.14 1.53 9.45 9.45 0 009-5.6q2.86-5.61 2.87-17.51v-8.43a70.3 70.3 0 00-1.11-13.99zm-11 21.73a67 67 0 01-.48 9.12 9.88 9.88 0 01-1.6 4.69 3.72 3.72 0 01-3 1.39 5.6 5.6 0 01-2.74-.69 5.27 5.27 0 01-2-2.09V38.1a7.51 7.51 0 012.06-3.56 4.62 4.62 0 013.22-1.39 3.23 3.23 0 012.78 1.43 10.91 10.91 0 011.39 4.82 90.13 90.13 0 01.39 9.64z"/></g></g></svg>