<svg xmlns="http://www.w3.org/2000/svg" viewBox="0 0 151.66 15.08"><defs><style>.cls-1{fill:#f9f1f1}</style></defs><g id="レイヤー_2" data-name="レイヤー 2"><g id="レイヤー_1-2" data-name="レイヤー 1"><path class="cls-1" d="M2.12 12.77H9v2.12H0V.21h2.12zM14.89 2.23a7.41 7.41 0 0 1 10.6 0 7.63 7.63 0 0 1 2.19 5.31 7.65 7.65 0 0 1-2.19 5.31 7.41 7.41 0 0 1-10.6 0 7.56 7.56 0 0 1 0-10.62zM24 3.74a5.4 5.4 0 0 0-3.8-1.6 5.27 5.27 0 0 0-3.76 1.6 5.38 5.38 0 0 0 0 7.6 5.3 5.3 0 0 0 3.76 1.59A5.4 5.4 0 0 0 24 3.74zM40.17 4c-.29-1.32-1.72-1.89-3-1.87a3.52 3.52 0 0 0-2.67 1.1 1.91 1.91 0 0 0-.35 1.37c.1 1.51 1.76 1.7 3.33 1.85 2 .25 4.52.77 5.08 3.12a4.81 4.81 0 0 1 .11 1c0 2.83-2.81 4.47-5.46 4.47-2.27 0-5-1.34-5.29-4v-.39L34 10.6v.32-.09c.15 1.37 1.81 2.08 3.17 2.08 1.58 0 3.3-.88 3.3-2.39a2.34 2.34 0 0 0-.06-.5c-.26-1.12-1.77-1.31-3.24-1.45-2.29-.23-5-.74-5.21-3.8a4 4 0 0 1 .8-2.8A5.67 5.67 0 0 1 37.27 0c2.27 0 4.62 1.18 5 3.87zM50.63 15V2.16h-4.45v-2h11v2h-4.43V15zM63.48 14.89h-2.12V.19h1.72l4.85 7.14L72.78.19h1.68v14.7h-2.1V4.54l-3.84 5.71h-1.2l-3.84-5.71zM81.1 2.23a7.41 7.41 0 0 1 10.6 0 7.53 7.53 0 0 1 0 10.62 7.41 7.41 0 0 1-10.6 0 7.56 7.56 0 0 1 0-10.62zm9.09 1.51a5.38 5.38 0 0 0-3.8-1.6 5.27 5.27 0 0 0-3.76 1.6 5.38 5.38 0 0 0 0 7.6 5.3 5.3 0 0 0 3.76 1.59 5.4 5.4 0 0 0 3.8-9.19zM101.26 7.43h2.48a2.5 2.5 0 0 0 2.66-2.56 2.5 2.5 0 0 0-2.66-2.54h-3.26v12.56h-2.09V.19h5.35a4.55 4.55 0 0 1 4.79 4.68 4.43 4.43 0 0 1-3.8 4.49l4.64 5.53h-2.75l-5.36-6.45zM116.36 15V2.16h-4.45v-2h11v2h-4.43V15zM135.11 10.56h-5.27c-.57 1.34-1.3 3.11-1.76 4.33h-2.29L131.69 0h1.55l5.9 14.89h-2.26zm-4.47-2h3.65l-1.8-5.19zM144.75 12.77h6.91v2.12h-9V.21h2.12z"/></g></g></svg>