<svg version="1.2" baseProfile="tiny" xmlns="http://www.w3.org/2000/svg" width="720" height="405"><path fill="#DADADA" stroke="#231815" stroke-miterlimit="10" d="M0 0h720v405H0z"/><path d="M223.371 170.148v53.051h-7.98l-16.629-32.098c-.258-.492-2.777-5.648-7.559-15.469h-1.09c0 1.219.058 4.254.176 9.105.07 3.141.105 5.789.105 7.945v30.516h-5.836v-53.051h9.738l15.188 29.742c1.266 2.438 2.66 5.332 4.184 8.684 1.805 3.985 2.906 6.387 3.305 7.207h1.125c-.375-10.102-.563-15.902-.563-17.402v-28.23h5.836zm33.891-.949c7.008 0 12.503 2.707 16.488 8.121 3.609 4.875 5.414 11.309 5.414 19.301 0 9.141-2.333 16.23-6.996 21.27-3.915 4.219-8.883 6.328-14.906 6.328-6.961 0-12.445-2.719-16.453-8.156-3.609-4.898-5.414-11.32-5.414-19.266 0-9.164 2.343-16.254 7.031-21.27 3.914-4.218 8.859-6.328 14.836-6.328zm0 5.168c-4.945 0-8.789 2.145-11.531 6.434-2.484 3.915-3.727 9.211-3.727 15.891 0 7.617 1.605 13.407 4.816 17.367 2.672 3.305 6.152 4.957 10.441 4.957 4.992 0 8.847-2.156 11.566-6.469 2.484-3.89 3.727-9.176 3.727-15.855 0-7.664-1.594-13.465-4.781-17.402-2.671-3.282-6.175-4.923-10.511-4.923zm60.715-4.219v53.051h-6.258v-53.051h6.258zm66.164 0v53.051h-5.977v-31.184l.141-16.77h-1.23c-1.781 6.657-3.34 12.106-4.676 16.348l-9.984 31.605h-8.016l-9.773-31.535c-.727-2.273-1.594-5.168-2.602-8.684-1.125-3.96-1.863-6.539-2.215-7.734h-1.23a82.916 82.916 0 0 0-.035 2.461l.176 14.414v31.078h-5.625v-53.051h10.512l9.492 31.254a3184.39 3184.39 0 0 1 2.566 8.543c.937 3.188 1.699 5.73 2.285 7.629h1.23c.258-.82 1.91-6.164 4.957-16.031l9.633-31.395h10.371zm34.945 0l17.051 53.051h-6.539l-5.133-16.84h-18.914l-5.344 16.84h-6.117l17.051-53.051h7.945zm4.008 31.325l-3.938-12.902c-1.032-3.305-2.285-7.84-3.762-13.605h-1.09c-1.195 4.992-2.414 9.504-3.656 13.535l-3.902 12.973h16.348zm60.117-17.578l-6.117 1.582c-1.875-7.406-6.176-11.109-12.902-11.109-5.063 0-9.012 2.157-11.848 6.469-2.579 3.915-3.867 9.199-3.867 15.855 0 7.641 1.605 13.418 4.816 17.332 2.719 3.328 6.328 4.992 10.828 4.992s7.957-1.91 10.371-5.73c1.921-3.046 2.976-6.949 3.164-11.707h-14.027v-5.098h19.934v26.93h-4.395l-.703-8.508c-1.5 3.188-3.656 5.59-6.469 7.207-2.461 1.406-5.25 2.109-8.367 2.109-6.984 0-12.458-2.707-16.418-8.121-3.563-4.875-5.344-11.32-5.344-19.336 0-9.117 2.391-16.195 7.172-21.234 4.008-4.219 9.035-6.328 15.082-6.328 5.203 0 9.527 1.512 12.973 4.535 2.859 2.531 4.898 5.918 6.117 10.16zm47.566-13.747v5.273h-27.141v16.98h20.531v5.273h-20.531v20.25h27.633v5.273h-33.891v-53.051h33.399z" fill="#666"/></svg>